<svg width="119" height="47" viewBox="0 0 119 47" fill="none" xmlns="http://www.w3.org/2000/svg">
<path d="M9.11403 18.4727L9.69484 20.6403L6.13994 21.5929L3.58214 22.2782L1.06769 22.952L0.486882 20.7843L3.00133 20.1106L5.55912 19.4252L9.11403 18.4727ZM1.93263 16.1222L4.49043 15.4368L5.55912 19.4252L6.13994 21.5929L8.74198 31.3038C8.93558 32.0264 9.18556 32.5402 9.49189 32.8453C9.80352 33.1413 10.142 33.3062 10.5073 33.3399C10.8778 33.3645 11.251 33.3265 11.6267 33.2258C11.9085 33.1503 12.1358 33.0739 12.3087 32.9966C12.4797 32.9121 12.6164 32.8445 12.719 32.7938L13.8549 34.952C13.6989 35.0635 13.4743 35.1934 13.181 35.3417C12.8897 35.4972 12.5056 35.6389 12.0287 35.7666C11.3062 35.9602 10.5565 35.9946 9.77956 35.8698C9.0099 35.743 8.31228 35.4227 7.68671 34.9088C7.06836 34.393 6.62947 33.651 6.37004 32.6828L3.58214 22.2782L3.00133 20.1106L1.93263 16.1222Z" fill="white"/>
<path d="M17.4222 34.0891L12.9616 17.4418L15.4327 16.7796L16.1064 19.2941L16.2798 19.2476C16.3626 18.3426 16.7326 17.5271 17.3899 16.8011C18.0473 16.0752 18.8745 15.5786 19.8716 15.3114C20.0595 15.2611 20.2953 15.2018 20.579 15.1335C20.8627 15.0652 21.0788 15.019 21.2272 14.9947L21.9241 17.5958C21.8316 17.5974 21.6242 17.6181 21.3019 17.658C20.9849 17.6887 20.6566 17.7496 20.317 17.8406C19.5077 18.0574 18.8307 18.4208 18.2858 18.9308C17.7463 19.4316 17.3716 20.0276 17.1619 20.7189C16.9575 21.4009 16.9559 22.1177 17.1572 22.8691L19.98 33.4038L17.4222 34.0891Z" fill="white"/>
<path d="M33.7812 30.1239C32.7263 30.4066 31.7157 30.4644 30.7494 30.2974C29.7812 30.1232 28.9425 29.7245 28.2334 29.1013C27.5224 28.471 27.0217 27.6139 26.7313 26.5301C26.4758 25.5763 26.4565 24.7528 26.6734 24.0597C26.8885 23.3593 27.2648 22.7551 27.8024 22.2471C28.34 21.739 28.9659 21.3003 29.68 20.9308C30.3995 20.5522 31.1322 20.2087 31.8782 19.9004C32.8549 19.4993 33.6489 19.182 34.2601 18.9486C34.8765 18.7059 35.307 18.4628 35.5515 18.2192C35.8032 17.9736 35.8739 17.6449 35.7635 17.2331L35.7403 17.1464C35.4538 16.077 34.9385 15.3245 34.1945 14.8888C33.4577 14.4512 32.5004 14.3902 31.3227 14.7058C30.1016 15.033 29.2159 15.5568 28.6655 16.2774C28.1151 16.9979 27.7803 17.6994 27.6612 18.3818L25.0011 18.1653C25.1636 17.0376 25.5306 16.0951 26.1021 15.3379C26.6789 14.5716 27.3673 13.9612 28.1671 13.5069C28.9722 13.0433 29.7938 12.6993 30.6319 12.4747C31.1666 12.3314 31.7982 12.2319 32.5267 12.1761C33.2605 12.1111 34.0048 12.1866 34.7596 12.4025C35.5217 12.6165 36.225 13.0592 36.8695 13.7306C37.5141 14.402 38.0135 15.3989 38.3678 16.7211L41.3067 27.6893L38.7489 28.3746L38.1449 26.1203L38.0148 26.1552C37.9382 26.5629 37.7528 27.0269 37.4585 27.5472C37.1642 28.0674 36.7198 28.5621 36.1253 29.0312C35.5308 29.5002 34.7494 29.8645 33.7812 30.1239ZM33.5557 27.7217C34.5673 27.4506 35.3667 27.0235 35.9538 26.4402C36.5482 25.855 36.9382 25.2007 37.1238 24.4772C37.3166 23.7518 37.3201 23.0423 37.1343 22.3487L36.507 20.0076C36.4334 20.1667 36.227 20.3498 35.8875 20.5569C35.5533 20.7549 35.1585 20.9575 34.7029 21.1648C34.2526 21.3629 33.8112 21.5508 33.3787 21.7287C32.9515 21.8973 32.6055 22.0365 32.3406 22.1462C31.6991 22.4111 31.1154 22.7184 30.5897 23.0684C30.0692 23.4092 29.6833 23.8185 29.4318 24.2963C29.1857 24.765 29.1497 25.3245 29.324 25.9748C29.5621 26.8635 30.0709 27.4474 30.8504 27.7264C31.6352 27.9962 32.537 27.9947 33.5557 27.7217Z" fill="white"/>
<path d="M52.3543 25.1008C50.967 25.4725 49.6484 25.4503 48.3985 25.034C47.1466 24.6105 46.0485 23.836 45.1042 22.7106C44.1579 21.578 43.4486 20.1301 42.9762 18.3671C42.5077 16.6186 42.4009 15.0209 42.656 13.5741C42.9111 12.1273 43.4795 10.9102 44.361 9.92276C45.2426 8.93536 46.3842 8.25386 47.786 7.87827C48.8698 7.58786 49.7744 7.53908 50.4998 7.73191C51.2305 7.91559 51.823 8.19049 52.2774 8.55664C52.737 8.91362 53.0995 9.21145 53.3648 9.45013L53.5815 9.39205L51.3861 1.19843L53.9439 0.513067L59.8914 22.7095L57.4203 23.3717L56.7349 20.8139L56.4315 20.8952C56.3249 21.249 56.1602 21.7036 55.9373 22.2589C55.7124 22.8071 55.3269 23.3479 54.7806 23.8815C54.2324 24.4078 53.4236 24.8143 52.3543 25.1008ZM52.0854 22.7102C53.1114 22.4353 53.9069 21.9356 54.4717 21.2112C55.0346 20.4796 55.3725 19.5875 55.4854 18.535C55.5964 17.4753 55.4835 16.3168 55.1466 15.0596C54.8136 13.8168 54.3416 12.7778 53.7306 11.9425C53.1176 11.1 52.3874 10.5135 51.5399 10.183C50.6905 9.84531 49.7456 9.81585 48.7051 10.0946C47.6213 10.385 46.7927 10.9052 46.2192 11.6552C45.651 12.396 45.3131 13.2881 45.2054 14.3314C45.1031 15.3656 45.2087 16.4679 45.5224 17.6384C45.8399 18.8234 46.309 19.8516 46.9297 20.723C47.5557 21.5852 48.3028 22.2059 49.1711 22.585C50.0446 22.955 51.0161 22.9967 52.0854 22.7102Z" fill="#7992ED"/>
<path d="M72.0038 19.8358C70.3997 20.2656 68.9212 20.2823 67.5682 19.8859C66.2205 19.4803 65.0609 18.7223 64.0897 17.6119C63.1236 16.4922 62.4122 15.0798 61.9553 13.3746C61.4984 11.6694 61.4064 10.0833 61.6793 8.61622C61.9575 7.13998 62.5588 5.88693 63.4832 4.85708C64.4128 3.81806 65.6291 3.09721 67.132 2.69451C67.9991 2.46219 68.894 2.37727 69.8168 2.43977C70.7396 2.50227 71.635 2.76573 72.5029 3.23016C73.3688 3.68736 74.15 4.39186 74.8465 5.34364C75.5429 6.29542 76.0993 7.54804 76.5155 9.1015L76.8059 10.1853L64.7162 13.4247L64.1303 11.212L73.6123 8.67132C73.3606 7.73201 72.9482 6.9442 72.375 6.30788C71.809 5.66963 71.1257 5.22932 70.3251 4.98694C69.5317 4.74263 68.6725 4.74438 67.7477 4.99219C66.7289 5.26518 65.9152 5.75426 65.3065 6.45945C64.7031 7.15548 64.3101 7.95775 64.1276 8.86625C63.9451 9.77476 63.9768 10.6878 64.2227 11.6055L64.6176 13.0794C64.9545 14.3367 65.4568 15.3443 66.1246 16.1024C66.7977 16.8514 67.5854 17.3489 68.4877 17.595C69.3881 17.8339 70.3549 17.8149 71.3881 17.5381C72.0601 17.358 72.6419 17.1015 73.1334 16.7684C73.6303 16.4262 74.0261 16.0103 74.3209 15.5209C74.6137 15.0243 74.7911 14.4579 74.853 13.8218L77.5099 13.8533C77.4744 14.7611 77.2347 15.6152 76.791 16.4156C76.3452 17.2088 75.7182 17.9034 74.9099 18.4995C74.0997 19.0883 73.131 19.5337 72.0038 19.8358Z" fill="white"/>
<path d="M63.7047 46.8254L57.5713 23.9352L60.0424 23.2731L60.751 25.9176L61.0545 25.8363C61.1649 25.497 61.3263 25.0588 61.5386 24.5217C61.7562 23.9755 62.1319 23.4412 62.6656 22.9187C63.2047 22.3871 64.0161 21.976 65.0999 21.6856C66.5016 21.31 67.8311 21.3294 69.0882 21.7437C70.3454 22.1581 71.4461 22.928 72.3905 24.0534C73.3348 25.1788 74.0412 26.6158 74.5097 28.3644C74.9821 30.1274 75.0917 31.7359 74.8386 33.1899C74.5835 34.6367 74.0197 35.8565 73.1473 36.8492C72.273 37.8346 71.1422 38.5132 69.7549 38.885C68.6856 39.1715 67.7819 39.2239 67.044 39.0422C66.3041 38.8532 65.6998 38.5776 65.231 38.2153C64.7603 37.8458 64.3903 37.5345 64.1211 37.2814L63.9044 37.3394L66.2625 46.14L63.7047 46.8254ZM62.3161 31.5852C62.6529 32.8424 63.1344 33.9021 63.7604 34.7644C64.3844 35.6194 65.1231 36.223 65.9764 36.5752C66.8277 36.9201 67.7664 36.9551 68.7924 36.6802C69.8618 36.3937 70.6786 35.8728 71.2429 35.1175C71.8125 34.3531 72.1492 33.442 72.253 32.3842C72.3621 31.3173 72.2578 30.1913 71.9403 29.0064C71.6267 27.8359 71.1634 26.8293 70.5504 25.9868C69.9428 25.1352 69.2041 24.5316 68.3344 24.1761C67.47 23.8114 66.4959 23.7742 65.4121 24.0646C64.3716 24.3434 63.568 24.8414 63.0013 25.5586C62.4326 26.2686 62.0934 27.1416 61.9839 28.1777C61.8723 29.2066 61.9831 30.3424 62.3161 31.5852Z" fill="#7992ED"/>
<path d="M77.5099 13.8533L83.1438 34.8792L80.8028 35.5065L74.853 13.8218L77.5099 13.8533Z" fill="white"/>
<path d="M93.2818 32.581C92.2269 32.8636 91.2163 32.9215 90.2499 32.7544C89.2817 32.5802 88.443 32.1815 87.734 31.5584C87.023 30.928 86.5223 30.0709 86.2319 28.9871C85.9763 28.0333 85.957 27.2099 86.174 26.5167C86.389 25.8163 86.7653 25.2121 87.303 24.7041C87.8406 24.1961 88.4665 23.7573 89.1806 23.3879C89.9 23.0092 90.6327 22.6658 91.3788 22.3574C92.3555 21.9563 93.1494 21.6391 93.7606 21.4056C94.3771 21.163 94.8076 20.9198 95.052 20.6762C95.3038 20.4307 95.3744 20.1019 95.2641 19.6901L95.2408 19.6034C94.9543 18.534 94.439 17.7815 93.695 17.3459C92.9582 16.9083 92.001 16.8472 90.8232 17.1628C89.6021 17.49 88.7164 18.0139 88.166 18.7344C87.6157 19.455 87.2809 20.1564 87.1617 20.8389L84.5017 20.6223C84.6641 19.4946 85.0311 18.5522 85.6027 17.795C86.1795 17.0286 86.8678 16.4183 87.6676 15.9639C88.4727 15.5004 89.2943 15.1563 90.1325 14.9317C90.6672 14.7885 91.2987 14.6889 92.0272 14.6331C92.761 14.5681 93.5053 14.6436 94.2602 14.8596C95.0222 15.0736 95.7255 15.5163 96.3701 16.1877C97.0146 16.8591 97.5141 17.8559 97.8683 19.1781L100.807 30.1463L98.2495 30.8317L97.6454 28.5774L97.5154 28.6122C97.4387 29.0199 97.2533 29.4839 96.959 30.0042C96.6648 30.5245 96.2204 31.0191 95.6259 31.4882C95.0313 31.9573 94.25 32.3215 93.2818 32.581ZM93.0563 30.1787C94.0678 29.9077 94.8672 29.4805 95.4544 28.8973C96.0487 28.3121 96.4387 27.6577 96.6243 26.9343C96.8172 26.2089 96.8207 25.4993 96.6348 24.8057L96.0075 22.4647C95.934 22.6238 95.7275 22.8069 95.388 23.014C95.0539 23.2119 94.659 23.4145 94.2034 23.6218C93.7531 23.8199 93.3117 24.0079 92.8793 24.1857C92.4521 24.3544 92.106 24.4936 91.8411 24.6033C91.1996 24.8681 90.616 25.1755 90.0902 25.5255C89.5698 25.8663 89.1838 26.2756 88.9324 26.7534C88.6862 27.222 88.6503 27.7815 88.8245 28.4318C89.0627 29.3205 89.5715 29.9044 90.3509 30.1834C91.1357 30.4533 92.0375 30.4517 93.0563 30.1787Z" fill="white"/>
<path d="M105.35 18.1956L108.034 28.21L105.476 28.8954L101.015 12.248L103.486 11.5859L104.183 14.1871L104.4 14.129C104.564 13.1791 104.974 12.3411 105.631 11.6152C106.287 10.882 107.243 10.3469 108.5 10.0101C109.628 9.70803 110.676 9.67497 111.645 9.91088C112.612 10.1396 113.456 10.657 114.175 11.4633C114.893 12.2623 115.441 13.3699 115.821 14.786L118.655 25.3641L116.097 26.0494L113.309 15.6448C112.959 14.337 112.346 13.4092 111.472 12.8615C110.595 12.3064 109.564 12.1877 108.379 12.5052C107.563 12.724 106.88 13.0965 106.332 13.6229C105.791 14.1473 105.427 14.7985 105.241 15.5764C105.054 16.3543 105.091 17.2274 105.35 18.1956Z" fill="white"/>
</svg>
